<?xml version="1.0" encoding="UTF-8"?>
<svg id="_图层_2" data-name="图层 2" xmlns="http://www.w3.org/2000/svg" viewBox="0 0 888.1 258.01">
  <defs>
    <style>
      .cls-1 {
        fill: #040000;
      }
    </style>
  </defs>
  <g id="_图层_1-2" data-name="图层 1">
    <g>
      <path class="cls-1" d="M126.13,20.11h-27.11c-.84,0-1.53-.68-1.53-1.53V1.53c0-.84-.68-1.53-1.53-1.53h-14c-.84,0-1.53.68-1.53,1.53v27.11c0,.84-.68,1.53-1.53,1.53h-7c-.84,0-1.53.68-1.53,1.53v7c0,.84-.68,1.53-1.53,1.53h-7c-.84,0-1.53.68-1.53,1.53v14c0,.84.68,1.53,1.53,1.53h14c.84,0,1.53-.68,1.53-1.53v-7c0-.84.68-1.53,1.53-1.53h7c.84,0,1.53-.68,1.53-1.53v-7c0-.84.68-1.53,1.53-1.53h30.17c.84,0,1.53.68,1.53,1.53v10.06c0,.84-.68,1.53-1.53,1.53h-7c-.84,0-1.53.68-1.53,1.53v14c0,.84.68,1.53,1.53,1.53h14c.84,0,1.53-.68,1.53-1.53v-7c0-.84.68-1.53,1.53-1.53h7c.84,0,1.53-.68,1.53-1.53v-24.06c0-.84-.68-1.53-1.53-1.53h-7c-.84,0-1.53-.68-1.53-1.53v-7c0-.84-.68-1.53-1.53-1.53Z"/>
      <path class="cls-1" d="M126.13,110.61h-7c-.84,0-1.53-.68-1.53-1.53v-17.06c0-.84-.68-1.53-1.53-1.53h-7c-.84,0-1.53-.68-1.53-1.53v-47.22c0-.84-.68-1.53-1.53-1.53h-14c-.84,0-1.53.68-1.53,1.53v47.22c0,.84-.68,1.53-1.53,1.53h-7c-.84,0-1.53.68-1.53,1.53v17.06c0,.84-.68,1.53-1.53,1.53h-7c-.84,0-1.53.68-1.53,1.53v7c0,.84-.68,1.53-1.53,1.53h-7c-.84,0-1.53.68-1.53,1.53v14c0,.84.68,1.53,1.53,1.53h14c.84,0,1.53-.68,1.53-1.53v-7c0-.84.68-1.53,1.53-1.53h7c.84,0,1.53-.68,1.53-1.53v-7c0-.84.68-1.53,1.53-1.53h7c.84,0,1.53-.68,1.53-1.53v-17.06c0-.84.68-1.53,1.53-1.53h0c.84,0,1.53.68,1.53,1.53v17.06c0,.84.68,1.53,1.53,1.53h7c.84,0,1.53.68,1.53,1.53v7c0,.84.68,1.53,1.53,1.53h7c.84,0,1.53.68,1.53,1.53v7c0,.84.68,1.53,1.53,1.53h14c.84,0,1.53-.68,1.53-1.53v-14c0-.84-.68-1.53-1.53-1.53h-7c-.84,0-1.53-.68-1.53-1.53v-7c0-.84-.68-1.53-1.53-1.53Z"/>
      <path class="cls-1" d="M65.8,90.5h-17.06c-.84,0-1.53-.68-1.53-1.53h0c0-.84.68-1.53,1.53-1.53h17.06c.84,0,1.53-.68,1.53-1.53v-14c0-.84-.68-1.53-1.53-1.53h-17.06c-.84,0-1.53-.68-1.53-1.53v-17.06c0-.84-.68-1.53-1.53-1.53h-14c-.84,0-1.53.68-1.53,1.53v17.06c0,.84-.68,1.53-1.53,1.53h-10.06c-.84,0-1.53-.68-1.53-1.53v-10.06c0-.84.68-1.53,1.53-1.53h7c.84,0,1.53-.68,1.53-1.53v-17.06c0-.84.68-1.53,1.53-1.53h37.17c.84,0,1.53-.68,1.53-1.53v-14c0-.84-.68-1.53-1.53-1.53h-27.11c-.84,0-1.53-.68-1.53-1.53V1.53c0-.84-.68-1.53-1.53-1.53h-14c-.84,0-1.53.68-1.53,1.53v17.06c0,.84-.68,1.53-1.53,1.53H1.53c-.84,0-1.53.68-1.53,1.53v14c0,.84.68,1.53,1.53,1.53h7c.84,0,1.53.68,1.53,1.53v10.06c0,.84-.68,1.53-1.53,1.53H1.53c-.84,0-1.53.68-1.53,1.53v24.06c0,.84.68,1.53,1.53,1.53h7c.84,0,1.53.68,1.53,1.53v7c0,.84.68,1.53,1.53,1.53h17.06c.84,0,1.53.68,1.53,1.53v10.06c0,.84-.68,1.53-1.53,1.53H1.53c-.84,0-1.53.68-1.53,1.53v14c0,.84.68,1.53,1.53,1.53h27.11c.84,0,1.53.68,1.53,1.53v17.06c0,.84.68,1.53,1.53,1.53h14c.84,0,1.53-.68,1.53-1.53v-27.11c0-.84.68-1.53,1.53-1.53h17.06c.84,0,1.53-.68,1.53-1.53v-14c0-.84-.68-1.53-1.53-1.53Z"/>
      <path class="cls-1" d="M279.27,117.61h7c.84,0,1.53-.68,1.53-1.53v-54.22c0-.84-.68-1.53-1.53-1.53h-7c-.84,0-1.53-.68-1.53-1.53v-7c0-.84-.68-1.53-1.53-1.53h-17.06c-.84,0-1.53-.68-1.53-1.53v-10.06c0-.84.68-1.53,1.53-1.53h27.11c.84,0,1.53-.68,1.53-1.53v-14c0-.84-.68-1.53-1.53-1.53h-27.11c-.84,0-1.53-.68-1.53-1.53v-7c0-.84-.68-1.53-1.53-1.53h-7c-.84,0-1.53-.68-1.53-1.53V1.53c0-.84-.68-1.53-1.53-1.53h-14c-.84,0-1.53.68-1.53,1.53v14c0,.84.68,1.53,1.53,1.53h7c.84,0,1.53.68,1.53,1.53h0c0,.84-.68,1.53-1.53,1.53h-37.17c-.84,0-1.53.68-1.53,1.53v7c0,.84-.68,1.53-1.53,1.53h-10.06c-.84,0-1.53-.68-1.53-1.53V1.53c0-.84-.68-1.53-1.53-1.53h-14c-.84,0-1.53.68-1.53,1.53v27.11c0,.84-.68,1.53-1.53,1.53h-17.06c-.84,0-1.53.68-1.53,1.53v14c0,.84.68,1.53,1.53,1.53h17.06c.84,0,1.53.68,1.53,1.53v20.11c0,.84-.68,1.53-1.53,1.53h-7c-.84,0-1.53.68-1.53,1.53v7c0,.84-.68,1.53-1.53,1.53h-7c-.84,0-1.53.68-1.53,1.53v14c0,.84.68,1.53,1.53,1.53h14c.84,0,1.53-.68,1.53-1.53v-7c0-.84.68-1.53,1.53-1.53h0c.84,0,1.53.68,1.53,1.53v47.22c0,.84.68,1.53,1.53,1.53h14c.84,0,1.53-.68,1.53-1.53v-57.28c0-.84.68-1.53,1.53-1.53h0c.84,0,1.53.68,1.53,1.53v7c0,.84.68,1.53,1.53,1.53h14c.84,0,1.53-.68,1.53-1.53v-14c0-.84-.68-1.53-1.53-1.53h-7c-.84,0-1.53-.68-1.53-1.53v-7c0-.84-.68-1.53-1.53-1.53h-7c-.84,0-1.53-.68-1.53-1.53v-10.06c0-.84.68-1.53,1.53-1.53h17.06c.84,0,1.53-.68,1.53-1.53v-7c0-.84.68-1.53,1.53-1.53h30.17c.84,0,1.53.68,1.53,1.53v10.06c0,.84-.68,1.53-1.53,1.53h-17.06c-.84,0-1.53.68-1.53,1.53v7c0,.84-.68,1.53-1.53,1.53h-7c-.84,0-1.53.68-1.53,1.53v64.28c0,.84.68,1.53,1.53,1.53h14c.84,0,1.53-.68,1.53-1.53v-57.28c0-.84.68-1.53,1.53-1.53h10.06c.84,0,1.53.68,1.53,1.53v67.33c0,.84.68,1.53,1.53,1.53h14c.84,0,1.53-.68,1.53-1.53v-7c0-.84.68-1.53,1.53-1.53h17.06c.84,0,1.53-.68,1.53-1.53v-7c0-.84.68-1.53,1.53-1.53ZM269.21,110.61h-10.06c-.84,0-1.53-.68-1.53-1.53v-40.22c0-.84.68-1.53,1.53-1.53h10.06c.84,0,1.53.68,1.53,1.53v40.22c0,.84-.68,1.53-1.53,1.53Z"/>
      <path class="cls-1" d="M379.07,57.28h17.06c.84,0,1.53-.68,1.53-1.53v-7c0-.84.68-1.53,1.53-1.53h7c.84,0,1.53-.68,1.53-1.53v-7c0-.84.68-1.53,1.53-1.53h7c.84,0,1.53-.68,1.53-1.53V11.58c0-.84-.68-1.53-1.53-1.53h-7c-.84,0-1.53-.68-1.53-1.53V1.53c0-.84-.68-1.53-1.53-1.53h-84.39c-.84,0-1.53.68-1.53,1.53v14c0,.84.68,1.53,1.53,1.53h77.39c.84,0,1.53.68,1.53,1.53v10.06c0,.84-.68,1.53-1.53,1.53h-7c-.84,0-1.53.68-1.53,1.53v7c0,.84-.68,1.53-1.53,1.53h-17.06c-.84,0-1.53.68-1.53,1.53v7c0,.84-.68,1.53-1.53,1.53h-7c-.84,0-1.53.68-1.53,1.53v7c0,.84-.68,1.53-1.53,1.53h-57.28c-.84,0-1.53.68-1.53,1.53v14c0,.84.68,1.53,1.53,1.53h57.28c.84,0,1.53.68,1.53,1.53v40.22c0,.84-.68,1.53-1.53,1.53h-27.11c-.84,0-1.53.68-1.53,1.53v14c0,.84.68,1.53,1.53,1.53h34.11c.84,0,1.53-.68,1.53-1.53v-7c0-.84.68-1.53,1.53-1.53h7c.84,0,1.53-.68,1.53-1.53v-47.22c0-.84.68-1.53,1.53-1.53h57.28c.84,0,1.53-.68,1.53-1.53v-14c0-.84-.68-1.53-1.53-1.53h-57.28c-.84,0-1.53-.68-1.53-1.53h0c0-.84.68-1.53,1.53-1.53Z"/>
      <path class="cls-1" d="M529.14,27.11h47.22c.84,0,1.53-.68,1.53-1.53v-14c0-.84-.68-1.53-1.53-1.53h-114.55c-.84,0-1.53.68-1.53,1.53v14c0,.84.68,1.53,1.53,1.53h47.22c.84,0,1.53.68,1.53,1.53v90.5c0,.84-.68,1.53-1.53,1.53h-57.28c-.84,0-1.53.68-1.53,1.53v14c0,.84.68,1.53,1.53,1.53h134.66c.84,0,1.53-.68,1.53-1.53v-14c0-.84-.68-1.53-1.53-1.53h-57.28c-.84,0-1.53-.68-1.53-1.53V28.64c0-.84.68-1.53,1.53-1.53Z"/>
      <path class="cls-1" d="M618.89,30.17h-7c-.84,0-1.53.68-1.53,1.53v17.06c0,.84-.68,1.53-1.53,1.53h-7c-.84,0-1.53.68-1.53,1.53v14c0,.84.68,1.53,1.53,1.53h7c.84,0,1.53.68,1.53,1.53v67.33c0,.84.68,1.53,1.53,1.53h14c.84,0,1.53-.68,1.53-1.53V38.69c0-.84.68-1.53,1.53-1.53h7c.84,0,1.53-.68,1.53-1.53V1.53c0-.84-.68-1.53-1.53-1.53h-14c-.84,0-1.53.68-1.53,1.53v27.11c0,.84-.68,1.53-1.53,1.53Z"/>
      <path class="cls-1" d="M676.16,0h-14c-.84,0-1.53.68-1.53,1.53v27.11c0,.84-.68,1.53-1.53,1.53h-7c-.84,0-1.53.68-1.53,1.53v17.06c0,.84-.68,1.53-1.53,1.53h-7c-.84,0-1.53.68-1.53,1.53v14c0,.84.68,1.53,1.53,1.53h14c.84,0,1.53-.68,1.53-1.53v-7c0-.84.68-1.53,1.53-1.53h7c.84,0,1.53-.68,1.53-1.53v-17.06c0-.84.68-1.53,1.53-1.53h0c.84,0,1.53.68,1.53,1.53v97.5c0,.84.68,1.53,1.53,1.53h14c.84,0,1.53-.68,1.53-1.53v-17.06c0-.84.68-1.53,1.53-1.53h37.17c.84,0,1.53-.68,1.53-1.53v-14c0-.84-.68-1.53-1.53-1.53h-37.17c-.84,0-1.53-.68-1.53-1.53v-20.11c0-.84.68-1.53,1.53-1.53h37.17c.84,0,1.53-.68,1.53-1.53v-14c0-.84-.68-1.53-1.53-1.53h-37.17c-.84,0-1.53-.68-1.53-1.53v-20.11c0-.84.68-1.53,1.53-1.53h47.22c.84,0,1.53-.68,1.53-1.53v-14c0-.84-.68-1.53-1.53-1.53h-57.28c-.84,0-1.53-.68-1.53-1.53V1.53c0-.84-.68-1.53-1.53-1.53Z"/>
      <path class="cls-1" d="M829.3,107.55h47.22c.84,0,1.53-.68,1.53-1.53v-14c0-.84-.68-1.53-1.53-1.53h-47.22c-.84,0-1.53-.68-1.53-1.53v-10.06c0-.84.68-1.53,1.53-1.53h17.05c.84,0,1.53-.68,1.53-1.53v-7c0-.84.68-1.53,1.53-1.53h0c.84,0,1.53.68,1.53,1.53v17.05c0,.84.68,1.53,1.53,1.53h14c.84,0,1.53-.68,1.53-1.53v-24.05c0-.84-.68-1.53-1.53-1.53h-7c-.84,0-1.53-.68-1.53-1.53v-7c0-.84-.68-1.53-1.53-1.53h-14c-.84,0-1.53.68-1.53,1.53v7c0,.84-.68,1.53-1.53,1.53h-17.05c-.84,0-1.53.68-1.53,1.53v7c0,.84-.68,1.53-1.53,1.53h-30.17c-.84,0-1.53-.68-1.53-1.53h0c0-.84.68-1.53,1.53-1.53h7c.84,0,1.53-.68,1.53-1.53v-7c0-.84.68-1.53,1.53-1.53h7c.84,0,1.53-.68,1.53-1.53v-7c0-.84.68-1.53,1.53-1.53h57.28c.84,0,1.53-.68,1.53-1.53v-14c0-.84-.68-1.53-1.53-1.53h-94.44c-.84,0-1.53.68-1.53,1.53v14c0,.84.68,1.53,1.53,1.53h17.06c.84,0,1.53.68,1.53,1.53h0c0,.84-.68,1.53-1.53,1.53h-7c-.84,0-1.53.68-1.53,1.53v7c0,.84-.68,1.53-1.53,1.53h-7c-.84,0-1.53.68-1.53,1.53v14c0,.84.68,1.53,1.53,1.53h7c.84,0,1.53.68,1.53,1.53v7c0,.84.68,1.53,1.53,1.53h27.11c.84,0,1.53.68,1.53,1.53h0c0,.84-.68,1.53-1.53,1.53h-47.22c-.84,0-1.53.68-1.53,1.53v14c0,.84.68,1.53,1.53,1.53h47.22c.84,0,1.53.68,1.53,1.53v10.06c0,.84-.68,1.53-1.53,1.53h-57.28c-.84,0-1.53.68-1.53,1.53v14c0,.84.68,1.53,1.53,1.53h134.66c.84,0,1.53-.68,1.53-1.53v-14c0-.84-.68-1.53-1.53-1.53h-57.28c-.84,0-1.53-.68-1.53-1.53v-10.06c0-.84.68-1.53,1.53-1.53Z"/>
      <path class="cls-1" d="M878.04,18.58v-7c0-.84-.68-1.53-1.53-1.53h-47.22c-.84,0-1.53-.68-1.53-1.53V1.53c0-.84-.68-1.53-1.53-1.53h-14c-.84,0-1.53.68-1.53,1.53v7c0,.84-.68,1.53-1.53,1.53h-47.22c-.84,0-1.53.68-1.53,1.53v7c0,.84-.68,1.53-1.53,1.53h-7c-.84,0-1.53.68-1.53,1.53v34.11c0,.84.68,1.53,1.53,1.53h14c.84,0,1.53-.68,1.53-1.53v-27.11c0-.84.68-1.53,1.53-1.53h100.55c.84,0,1.53.68,1.53,1.53v17.06c0,.84.68,1.53,1.53,1.53h14c.84,0,1.53-.68,1.53-1.53v-24.06c0-.84-.68-1.53-1.53-1.53h-7c-.84,0-1.53-.68-1.53-1.53Z"/>
      <path class="cls-1" d="M35.86,200.91h-2.28c-.84,0-1.53-.68-1.53-1.53v-2.28c0-.84-.68-1.53-1.53-1.53H3.17c-.84,0-1.53.68-1.53,1.53v59.39c0,.84.68,1.53,1.53,1.53h6c.84,0,1.53-.68,1.53-1.53v-23.64c0-.84.68-1.53,1.53-1.53h9.24c.84,0,1.53.68,1.53,1.53v2.28c0,.84.68,1.53,1.53,1.53h2.28c.84,0,1.53.68,1.53,1.53v7.62c0,.84.68,1.53,1.53,1.53h2.28c.84,0,1.53.68,1.53,1.53v7.62c0,.84.68,1.53,1.53,1.53h6c.84,0,1.53-.68,1.53-1.53v-11.34c0-.84-.68-1.53-1.53-1.53h-2.28c-.84,0-1.53-.68-1.53-1.53v-7.62c0-.84-.68-1.53-1.53-1.53h-2.28c-.84,0-1.53-.68-1.53-1.53v-3.91c0-.84.68-1.53,1.53-1.53h2.28c.84,0,1.53-.68,1.53-1.53v-2.28c0-.84.68-1.53,1.53-1.53h2.28c.84,0,1.53-.68,1.53-1.53v-11.34c0-.84-.68-1.53-1.53-1.53h-2.28c-.84,0-1.53-.68-1.53-1.53v-2.28c0-.84-.68-1.53-1.53-1.53ZM32.15,216.92h-2.28c-.84,0-1.53.68-1.53,1.53v2.28c0,.84-.68,1.53-1.53,1.53h-14.58c-.84,0-1.53-.68-1.53-1.53v-14.58c0-.84.68-1.53,1.53-1.53h14.58c.84,0,1.53.68,1.53,1.53v2.28c0,.84.68,1.53,1.53,1.53h2.28c.84,0,1.53.68,1.53,1.53v3.91c0,.84-.68,1.53-1.53,1.53Z"/>
      <path class="cls-1" d="M80.19,243.62h-2.28c-.84,0-1.53.68-1.53,1.53v2.28c0,.84-.68,1.53-1.53,1.53h-9.24c-.84,0-1.53-.68-1.53-1.53v-2.28c0-.84-.68-1.53-1.53-1.53h-2.28c-.84,0-1.53-.68-1.53-1.53v-28.98c0-.84-.68-1.53-1.53-1.53h-6c-.84,0-1.53.68-1.53,1.53v32.69c0,.84.68,1.53,1.53,1.53h2.28c.84,0,1.53.68,1.53,1.53v2.28c0,.84.68,1.53,1.53,1.53h2.28c.84,0,1.53.68,1.53,1.53v2.28c0,.84.68,1.53,1.53,1.53h16.68c.84,0,1.53-.68,1.53-1.53v-3c0-.45.36-.81.81-.81h0c.45,0,.81.36.81.81v3c0,.84.68,1.53,1.53,1.53h6c.84,0,1.53-.68,1.53-1.53v-43.37c0-.84-.68-1.53-1.53-1.53h-6c-.84,0-1.53.68-1.53,1.53v28.98c0,.84-.68,1.53-1.53,1.53Z"/>
      <path class="cls-1" d="M126.62,211.58h-22.02c-.84,0-1.53.68-1.53,1.53v2.28c0,.84-.68,1.53-1.53,1.53h-2.28c-.84,0-1.53.68-1.53,1.53v11.34c0,.84.68,1.53,1.53,1.53h2.28c.84,0,1.53.68,1.53,1.53v2.28c0,.84.68,1.53,1.53,1.53h7.62c.84,0,1.53.68,1.53,1.53v2.28c0,.84.68,1.53,1.53,1.53h7.62c.84,0,1.53.68,1.53,1.53v3.91c0,.84-.68,1.53-1.53,1.53h-14.58c-.84,0-1.53-.68-1.53-1.53v-2.28c0-.84-.68-1.53-1.53-1.53h-6c-.84,0-1.53.68-1.53,1.53v6c0,.84.68,1.53,1.53,1.53h2.28c.84,0,1.53.68,1.53,1.53v2.28c0,.84.68,1.53,1.53,1.53h22.02c.84,0,1.53-.68,1.53-1.53v-2.28c0-.84.68-1.53,1.53-1.53h2.28c.84,0,1.53-.68,1.53-1.53v-11.34c0-.84-.68-1.53-1.53-1.53h-2.28c-.84,0-1.53-.68-1.53-1.53v-2.28c0-.84-.68-1.53-1.53-1.53h-7.62c-.84,0-1.53-.68-1.53-1.53v-2.28c0-.84-.68-1.53-1.53-1.53h-7.62c-.84,0-1.53-.68-1.53-1.53v-3.91c0-.84.68-1.53,1.53-1.53h14.58c.84,0,1.53.68,1.53,1.53v2.28c0,.84.68,1.53,1.53,1.53h6c.84,0,1.53-.68,1.53-1.53v-6c0-.84-.68-1.53-1.53-1.53h-2.28c-.84,0-1.53-.68-1.53-1.53v-2.28c0-.84-.68-1.53-1.53-1.53Z"/>
      <path class="cls-1" d="M174.67,216.92h-2.28c-.84,0-1.53-.68-1.53-1.53v-2.28c0-.84-.68-1.53-1.53-1.53h-16.68c-.84,0-1.53.68-1.53,1.53v3c0,.45-.36.81-.81.81h0c-.45,0-.81-.36-.81-.81v-19.02c0-.84-.68-1.53-1.53-1.53h-6c-.84,0-1.53.68-1.53,1.53v59.39c0,.84.68,1.53,1.53,1.53h6c.84,0,1.53-.68,1.53-1.53v-28.98c0-.84.68-1.53,1.53-1.53h2.28c.84,0,1.53-.68,1.53-1.53v-2.28c0-.84.68-1.53,1.53-1.53h9.24c.84,0,1.53.68,1.53,1.53v2.28c0,.84.68,1.53,1.53,1.53h2.28c.84,0,1.53.68,1.53,1.53v28.98c0,.84.68,1.53,1.53,1.53h6c.84,0,1.53-.68,1.53-1.53v-32.69c0-.84-.68-1.53-1.53-1.53h-2.28c-.84,0-1.53-.68-1.53-1.53v-2.28c0-.84-.68-1.53-1.53-1.53Z"/>
      <path class="cls-1" d="M217.37,211.58h-22.02c-.84,0-1.53.68-1.53,1.53v2.28c0,.84-.68,1.53-1.53,1.53h-2.28c-.84,0-1.53.68-1.53,1.53v11.34c0,.84.68,1.53,1.53,1.53h2.28c.84,0,1.53.68,1.53,1.53v2.28c0,.84.68,1.53,1.53,1.53h7.62c.84,0,1.53.68,1.53,1.53v2.28c0,.84.68,1.53,1.53,1.53h7.62c.84,0,1.53.68,1.53,1.53v3.91c0,.84-.68,1.53-1.53,1.53h-14.58c-.84,0-1.53-.68-1.53-1.53v-2.28c0-.84-.68-1.53-1.53-1.53h-6c-.84,0-1.53.68-1.53,1.53v6c0,.84.68,1.53,1.53,1.53h2.28c.84,0,1.53.68,1.53,1.53v2.28c0,.84.68,1.53,1.53,1.53h22.02c.84,0,1.53-.68,1.53-1.53v-2.28c0-.84.68-1.53,1.53-1.53h2.28c.84,0,1.53-.68,1.53-1.53v-11.34c0-.84-.68-1.53-1.53-1.53h-2.28c-.84,0-1.53-.68-1.53-1.53v-2.28c0-.84-.68-1.53-1.53-1.53h-7.62c-.84,0-1.53-.68-1.53-1.53v-2.28c0-.84-.68-1.53-1.53-1.53h-7.62c-.84,0-1.53-.68-1.53-1.53v-3.91c0-.84.68-1.53,1.53-1.53h14.58c.84,0,1.53.68,1.53,1.53v2.28c0,.84.68,1.53,1.53,1.53h6c.84,0,1.53-.68,1.53-1.53v-6c0-.84-.68-1.53-1.53-1.53h-2.28c-.84,0-1.53-.68-1.53-1.53v-2.28c0-.84-.68-1.53-1.53-1.53Z"/>
      <path class="cls-1" d="M238.73,200.91h-6c-.84,0-1.53.68-1.53,1.53v7.62c0,.84-.68,1.53-1.53,1.53h-2.28c-.84,0-1.53.68-1.53,1.53v6c0,.84.68,1.53,1.53,1.53h2.28c.84,0,1.53.68,1.53,1.53v28.98c0,.84.68,1.53,1.53,1.53h2.28c.84,0,1.53.68,1.53,1.53v2.28c0,.84.68,1.53,1.53,1.53h11.34c.84,0,1.53-.68,1.53-1.53v-2.28c0-.84.68-1.53,1.53-1.53h2.28c.84,0,1.53-.68,1.53-1.53v-6c0-.84-.68-1.53-1.53-1.53h-6c-.84,0-1.53.68-1.53,1.53v2.28c0,.84-.68,1.53-1.53,1.53h-3.9c-.84,0-1.53-.68-1.53-1.53v-25.26c0-.84.68-1.53,1.53-1.53h12.96c.84,0,1.53-.68,1.53-1.53v-6c0-.84-.68-1.53-1.53-1.53h-12.96c-.84,0-1.53-.68-1.53-1.53v-7.62c0-.84-.68-1.53-1.53-1.53Z"/>
      <path class="cls-1" d="M288.4,243.62h-2.28c-.84,0-1.53.68-1.53,1.53v2.28c0,.84-.68,1.53-1.53,1.53h-9.24c-.84,0-1.53-.68-1.53-1.53v-2.28c0-.84-.68-1.53-1.53-1.53h-2.28c-.84,0-1.53-.68-1.53-1.53v-28.98c0-.84-.68-1.53-1.53-1.53h-6c-.84,0-1.53.68-1.53,1.53v32.69c0,.84.68,1.53,1.53,1.53h2.28c.84,0,1.53.68,1.53,1.53v2.28c0,.84.68,1.53,1.53,1.53h2.28c.84,0,1.53.68,1.53,1.53v2.28c0,.84.68,1.53,1.53,1.53h16.68c.84,0,1.53-.68,1.53-1.53v-3c0-.45.36-.81.81-.81h0c.45,0,.81.36.81.81v3c0,.84.68,1.53,1.53,1.53h6c.84,0,1.53-.68,1.53-1.53v-43.37c0-.84-.68-1.53-1.53-1.53h-6c-.84,0-1.53.68-1.53,1.53v28.98c0,.84-.68,1.53-1.53,1.53Z"/>
      <path class="cls-1" d="M337.16,216.92h0c-.45,0-.81-.36-.81-.81v-3c0-.84-.68-1.53-1.53-1.53h-16.68c-.84,0-1.53.68-1.53,1.53v2.28c0,.84-.68,1.53-1.53,1.53h-2.28c-.84,0-1.53.68-1.53,1.53v2.28c0,.84-.68,1.53-1.53,1.53h-2.28c-.84,0-1.53.68-1.53,1.53v22.02c0,.84.68,1.53,1.53,1.53h2.28c.84,0,1.53.68,1.53,1.53v2.28c0,.84.68,1.53,1.53,1.53h2.28c.84,0,1.53.68,1.53,1.53v2.28c0,.84.68,1.53,1.53,1.53h16.68c.84,0,1.53-.68,1.53-1.53v-3c0-.45.36-.81.81-.81h0c.45,0,.81.36.81.81v3c0,.84.68,1.53,1.53,1.53h6c.84,0,1.53-.68,1.53-1.53v-59.39c0-.84-.68-1.53-1.53-1.53h-6c-.84,0-1.53.68-1.53,1.53v19.02c0,.45-.36.81-.81.81ZM331.11,248.95h-9.24c-.84,0-1.53-.68-1.53-1.53v-2.28c0-.84-.68-1.53-1.53-1.53h-2.28c-.84,0-1.53-.68-1.53-1.53v-14.58c0-.84.68-1.53,1.53-1.53h2.28c.84,0,1.53-.68,1.53-1.53v-2.28c0-.84.68-1.53,1.53-1.53h9.24c.84,0,1.53.68,1.53,1.53v2.28c0,.84.68,1.53,1.53,1.53h2.28c.84,0,1.53.68,1.53,1.53v14.58c0,.84-.68,1.53-1.53,1.53h-2.28c-.84,0-1.53.68-1.53,1.53v2.28c0,.84-.68,1.53-1.53,1.53Z"/>
      <rect class="cls-1" x="353.99" y="195.57" width="9.06" height="14.39" rx="1.53" ry="1.53"/>
      <rect class="cls-1" x="353.99" y="211.58" width="9.06" height="46.43" rx="1.53" ry="1.53"/>
      <path class="cls-1" d="M404.22,216.92h-2.28c-.84,0-1.53-.68-1.53-1.53v-2.28c0-.84-.68-1.53-1.53-1.53h-16.68c-.84,0-1.53.68-1.53,1.53v2.28c0,.84-.68,1.53-1.53,1.53h-2.28c-.84,0-1.53.68-1.53,1.53v2.28c0,.84-.68,1.53-1.53,1.53h-2.28c-.84,0-1.53.68-1.53,1.53v22.02c0,.84.68,1.53,1.53,1.53h2.28c.84,0,1.53.68,1.53,1.53v2.28c0,.84.68,1.53,1.53,1.53h2.28c.84,0,1.53.68,1.53,1.53v2.28c0,.84.68,1.53,1.53,1.53h16.68c.84,0,1.53-.68,1.53-1.53v-2.28c0-.84.68-1.53,1.53-1.53h2.28c.84,0,1.53-.68,1.53-1.53v-2.28c0-.84.68-1.53,1.53-1.53h2.28c.84,0,1.53-.68,1.53-1.53v-22.02c0-.84-.68-1.53-1.53-1.53h-2.28c-.84,0-1.53-.68-1.53-1.53v-2.28c0-.84-.68-1.53-1.53-1.53ZM400.51,243.62h-2.28c-.84,0-1.53.68-1.53,1.53v2.28c0,.84-.68,1.53-1.53,1.53h-9.24c-.84,0-1.53-.68-1.53-1.53v-2.28c0-.84-.68-1.53-1.53-1.53h-2.28c-.84,0-1.53-.68-1.53-1.53v-14.58c0-.84.68-1.53,1.53-1.53h2.28c.84,0,1.53-.68,1.53-1.53v-2.28c0-.84.68-1.53,1.53-1.53h9.24c.84,0,1.53.68,1.53,1.53v2.28c0,.84.68,1.53,1.53,1.53h2.28c.84,0,1.53.68,1.53,1.53v14.58c0,.84-.68,1.53-1.53,1.53Z"/>
    </g>
  </g>
</svg>